<?xml version="1.0" standalone="no"?>
<!DOCTYPE svg PUBLIC "-//W3C//DTD SVG 1.1//EN" "http://www.w3.org/Graphics/SVG/1.1/DTD/svg11.dtd">
<svg xmlns="http://www.w3.org/2000/svg" width="805" height="123" viewBox="0 0 805 123" fill="none">
<g filter="url(#filter0_d_4_156)">
<mask id="path-1-inside-1_4_156" fill="white">
<path d="M32.9686 108.655L32.9682 108.653C32.857 108.283 32.4771 108.063 32.0933 108.138C31.6685 108.221 31.1642 108.295 30.6044 108.322C29.7143 108.365 28.6692 108.287 27.7217 107.895C26.7702 107.512 25.9689 106.789 25.4661 105.823C25.391 105.706 25.3559 105.592 25.2969 105.478C25.2701 105.418 25.2433 105.37 25.215 105.302L25.1301 105.078C25.0189 104.781 24.9077 104.485 24.798 104.191C24.5771 103.562 24.2903 102.956 23.9972 102.375C23.8343 102.089 23.688 101.802 23.5164 101.53C23.334 101.263 23.1672 100.996 22.9799 100.747C22.779 100.504 22.5995 100.259 22.3918 100.039C22.1748 99.8258 21.9899 99.6027 21.7617 99.4214C21.5417 99.2348 21.3355 99.0526 21.1062 98.905C20.9946 98.829 20.8858 98.7549 20.7805 98.6833C20.6668 98.6193 20.5561 98.5573 20.4489 98.4967C20.0187 98.2573 19.5964 98.1034 19.2365 97.9981C19.0268 97.9428 18.8454 97.9053 18.6795 97.8779V70.6645C18.6795 69.8611 18.227 69.1691 17.5647 68.8003V58.0575H24.8292C25.8831 58.0575 26.7843 57.3161 26.9726 56.2938C27.7114 52.2774 29.1276 42.5159 26.2537 38.8645C26.1396 38.7193 26.0299 38.5745 25.9255 38.4303C23.7115 35.3784 23.4252 31.3495 25.0336 27.949C27.0594 23.6658 31.0091 14.5424 27.3818 13.3706C23.9353 12.257 21.3618 10.5327 20.2601 9.71432C19.8846 9.43543 19.6364 9.0248 19.5691 8.56608L19.2813 6.61485C19.2248 6.23163 18.8917 5.94745 18.4986 5.94745H18.4308C18.4308 5.94745 19.0199 5.34641 18.1665 4.76556C17.6457 4.41118 17.5306 3.99622 17.5189 3.72551C18.1211 3.37691 18.5323 2.73836 18.5323 2.00364C18.5323 0.901567 17.6178 0 16.5001 0C15.3823 0 14.4679 0.901567 14.4679 2.00364C14.4679 2.73836 14.879 3.37691 15.4813 3.72551C15.4696 3.99622 15.3545 4.41118 14.8337 4.76556C13.9802 5.34641 14.5693 5.94745 14.5693 5.94745H14.5016C14.109 5.94745 13.7754 6.23163 13.7188 6.61485L13.4311 8.56608C13.3633 9.0248 13.1151 9.43543 12.74 9.71432C11.6384 10.5322 9.06487 12.257 5.61841 13.3706C1.99102 14.5429 5.94077 23.6658 7.9666 27.949C9.57498 31.3495 9.28822 35.3789 7.07463 38.4303C6.96977 38.5745 6.86053 38.7193 6.74641 38.8645C3.8725 42.5164 5.28873 52.2774 6.02757 56.2938C6.21582 57.3161 7.11706 58.0575 8.17095 58.0575H15.4355V68.8003C14.7732 69.1691 14.3206 69.8611 14.3206 70.6645V97.8779C14.1548 97.9053 13.9734 97.9428 13.7637 97.9981C13.4043 98.1039 12.9814 98.2573 12.5513 98.4967C12.444 98.5568 12.3338 98.6193 12.2197 98.6833C12.1139 98.7554 12.0051 98.829 11.8939 98.905C11.6652 99.0526 11.4584 99.2348 11.2385 99.4214C11.0102 99.6027 10.8254 99.8258 10.6084 100.039C10.4006 100.259 10.2212 100.504 10.0202 100.747C9.83248 100.996 9.66569 101.263 9.48378 101.53C9.31212 101.802 9.16582 102.088 9.00293 102.375C8.70983 102.956 8.42259 103.562 8.20216 104.191C8.09194 104.485 7.98123 104.781 7.87004 105.078L7.78518 105.302C7.75738 105.37 7.73056 105.418 7.70325 105.478C7.64424 105.592 7.60914 105.706 7.53403 105.823C7.03074 106.789 6.22997 107.512 5.2785 107.895C4.33044 108.287 3.28582 108.365 2.3958 108.322C1.83594 108.294 1.33167 108.221 0.906898 108.138C0.523092 108.063 0.143686 108.283 0.0320069 108.653L0.0315158 108.655C-0.0884542 109.053 0.144648 109.474 0.551376 109.58C1.02833 109.705 1.60136 109.827 2.26071 109.901C3.29703 110.014 4.58014 110.023 5.9198 109.572C6.58451 109.348 7.25068 108.999 7.83736 108.528C8.42599 108.059 8.92539 107.473 9.31456 106.845C9.42039 106.695 9.50573 106.511 9.60034 106.344L9.73347 106.091L9.83247 105.872C9.96415 105.58 10.0949 105.289 10.2246 105C10.4557 104.452 10.7381 103.95 11.0146 103.476C11.1658 103.25 11.3019 103.016 11.454 102.808C11.6135 102.607 11.7593 102.401 11.9159 102.218C12.0812 102.048 12.2285 101.865 12.3899 101.718C12.5562 101.58 12.6996 101.417 12.8625 101.311C13.02 101.196 13.1663 101.077 13.3179 100.998C13.3916 100.954 13.4628 100.911 13.5325 100.869C13.6037 100.836 13.673 100.803 13.7403 100.772C13.9602 100.666 14.1514 100.61 14.3182 100.568C14.2987 100.596 14.2792 100.624 14.2592 100.653C14.2226 100.719 14.185 100.786 14.1465 100.856C14.0656 100.992 14.0027 101.149 13.9344 101.312C13.8607 101.472 13.8168 101.655 13.7559 101.837C13.7003 102.021 13.6637 102.219 13.6164 102.419C13.5769 102.621 13.5511 102.833 13.5179 103.047C13.4906 103.263 13.4789 103.486 13.4594 103.711C13.4374 104.163 13.4238 104.632 13.4472 105.107C13.4545 105.33 13.4623 105.555 13.4701 105.78L13.4755 105.951C13.476 106.003 13.473 106.04 13.4721 106.086C13.4672 106.175 13.4735 106.261 13.4613 106.354C13.4169 107.107 13.177 107.73 12.7927 108.134C12.4118 108.543 11.9188 108.745 11.475 108.839C11.196 108.897 10.9351 108.92 10.7103 108.917C10.3875 108.912 10.2919 109.218 10.3148 109.495V109.497C10.3392 109.794 10.4679 109.966 10.8371 109.986C11.0961 110 11.4004 110.013 11.7379 109.974C12.267 109.908 12.8946 109.735 13.4545 109.23C13.732 108.978 13.9846 108.639 14.1724 108.224C14.3616 107.81 14.4835 107.326 14.5425 106.827C14.563 106.707 14.5664 106.565 14.5776 106.433L14.5898 106.236L14.5928 106.068C14.5962 105.843 14.5991 105.619 14.6025 105.396C14.601 104.977 14.6347 104.583 14.6703 104.209C14.6966 104.028 14.7147 103.844 14.7454 103.675C14.7815 103.511 14.8093 103.345 14.8478 103.194C14.8927 103.051 14.9268 102.9 14.9746 102.774C15.0268 102.653 15.0634 102.518 15.1204 102.42C15.1736 102.317 15.2199 102.213 15.2775 102.136C15.3043 102.094 15.3301 102.054 15.3555 102.015C15.3833 101.981 15.4101 101.949 15.4364 101.917C15.5213 101.812 15.6023 101.746 15.6744 101.693H17.95C18.3543 101.693 18.6815 101.37 18.6815 100.972V100.568C18.8493 100.61 19.0414 100.666 19.2628 100.773C19.3301 100.804 19.3989 100.836 19.4706 100.87C19.5403 100.911 19.6115 100.954 19.6851 100.999C19.8363 101.078 19.9826 101.197 20.1406 101.312C20.303 101.418 20.4469 101.58 20.6132 101.718C20.7746 101.865 20.9219 102.049 21.0872 102.219C21.2438 102.401 21.3891 102.608 21.5491 102.808C21.7012 103.017 21.8373 103.25 21.9885 103.477C22.2645 103.951 22.5474 104.452 22.7785 105C22.9082 105.289 23.0394 105.58 23.1706 105.873L23.2696 106.091L23.4028 106.344C23.4974 106.511 23.5827 106.696 23.6885 106.845C24.0777 107.473 24.5776 108.059 25.1657 108.528C25.7524 109 26.4186 109.349 27.0833 109.573C28.4234 110.023 29.7065 110.014 30.7424 109.902C31.4017 109.827 31.9747 109.706 32.4517 109.581C32.8555 109.474 33.0881 109.053 32.9686 108.655Z"/>
</mask>
<path d="M32.9686 108.655L32.9682 108.653C32.857 108.283 32.4771 108.063 32.0933 108.138C31.6685 108.221 31.1642 108.295 30.6044 108.322C29.7143 108.365 28.6692 108.287 27.7217 107.895C26.7702 107.512 25.9689 106.789 25.4661 105.823C25.391 105.706 25.3559 105.592 25.2969 105.478C25.2701 105.418 25.2433 105.37 25.215 105.302L25.1301 105.078C25.0189 104.781 24.9077 104.485 24.798 104.191C24.5771 103.562 24.2903 102.956 23.9972 102.375C23.8343 102.089 23.688 101.802 23.5164 101.53C23.334 101.263 23.1672 100.996 22.9799 100.747C22.779 100.504 22.5995 100.259 22.3918 100.039C22.1748 99.8258 21.9899 99.6027 21.7617 99.4214C21.5417 99.2348 21.3355 99.0526 21.1062 98.905C20.9946 98.829 20.8858 98.7549 20.7805 98.6833C20.6668 98.6193 20.5561 98.5573 20.4489 98.4967C20.0187 98.2573 19.5964 98.1034 19.2365 97.9981C19.0268 97.9428 18.8454 97.9053 18.6795 97.8779V70.6645C18.6795 69.8611 18.227 69.1691 17.5647 68.8003V58.0575H24.8292C25.8831 58.0575 26.7843 57.3161 26.9726 56.2938C27.7114 52.2774 29.1276 42.5159 26.2537 38.8645C26.1396 38.7193 26.0299 38.5745 25.9255 38.4303C23.7115 35.3784 23.4252 31.3495 25.0336 27.949C27.0594 23.6658 31.0091 14.5424 27.3818 13.3706C23.9353 12.257 21.3618 10.5327 20.2601 9.71432C19.8846 9.43543 19.6364 9.0248 19.5691 8.56608L19.2813 6.61485C19.2248 6.23163 18.8917 5.94745 18.4986 5.94745H18.4308C18.4308 5.94745 19.0199 5.34641 18.1665 4.76556C17.6457 4.41118 17.5306 3.99622 17.5189 3.72551C18.1211 3.37691 18.5323 2.73836 18.5323 2.00364C18.5323 0.901567 17.6178 0 16.5001 0C15.3823 0 14.4679 0.901567 14.4679 2.00364C14.4679 2.73836 14.879 3.37691 15.4813 3.72551C15.4696 3.99622 15.3545 4.41118 14.8337 4.76556C13.9802 5.34641 14.5693 5.94745 14.5693 5.94745H14.5016C14.109 5.94745 13.7754 6.23163 13.7188 6.61485L13.4311 8.56608C13.3633 9.0248 13.1151 9.43543 12.74 9.71432C11.6384 10.5322 9.06487 12.257 5.61841 13.3706C1.99102 14.5429 5.94077 23.6658 7.9666 27.949C9.57498 31.3495 9.28822 35.3789 7.07463 38.4303C6.96977 38.5745 6.86053 38.7193 6.74641 38.8645C3.8725 42.5164 5.28873 52.2774 6.02757 56.2938C6.21582 57.3161 7.11706 58.0575 8.17095 58.0575H15.4355V68.8003C14.7732 69.1691 14.3206 69.8611 14.3206 70.6645V97.8779C14.1548 97.9053 13.9734 97.9428 13.7637 97.9981C13.4043 98.1039 12.9814 98.2573 12.5513 98.4967C12.444 98.5568 12.3338 98.6193 12.2197 98.6833C12.1139 98.7554 12.0051 98.829 11.8939 98.905C11.6652 99.0526 11.4584 99.2348 11.2385 99.4214C11.0102 99.6027 10.8254 99.8258 10.6084 100.039C10.4006 100.259 10.2212 100.504 10.0202 100.747C9.83248 100.996 9.66569 101.263 9.48378 101.53C9.31212 101.802 9.16582 102.088 9.00293 102.375C8.70983 102.956 8.42259 103.562 8.20216 104.191C8.09194 104.485 7.98123 104.781 7.87004 105.078L7.78518 105.302C7.75738 105.37 7.73056 105.418 7.70325 105.478C7.64424 105.592 7.60914 105.706 7.53403 105.823C7.03074 106.789 6.22997 107.512 5.2785 107.895C4.33044 108.287 3.28582 108.365 2.3958 108.322C1.83594 108.294 1.33167 108.221 0.906898 108.138C0.523092 108.063 0.143686 108.283 0.0320069 108.653L0.0315158 108.655C-0.0884542 109.053 0.144648 109.474 0.551376 109.58C1.02833 109.705 1.60136 109.827 2.26071 109.901C3.29703 110.014 4.58014 110.023 5.9198 109.572C6.58451 109.348 7.25068 108.999 7.83736 108.528C8.42599 108.059 8.92539 107.473 9.31456 106.845C9.42039 106.695 9.50573 106.511 9.60034 106.344L9.73347 106.091L9.83247 105.872C9.96415 105.58 10.0949 105.289 10.2246 105C10.4557 104.452 10.7381 103.95 11.0146 103.476C11.1658 103.25 11.3019 103.016 11.454 102.808C11.6135 102.607 11.7593 102.401 11.9159 102.218C12.0812 102.048 12.2285 101.865 12.3899 101.718C12.5562 101.58 12.6996 101.417 12.8625 101.311C13.02 101.196 13.1663 101.077 13.3179 100.998C13.3916 100.954 13.4628 100.911 13.5325 100.869C13.6037 100.836 13.673 100.803 13.7403 100.772C13.9602 100.666 14.1514 100.61 14.3182 100.568C14.2987 100.596 14.2792 100.624 14.2592 100.653C14.2226 100.719 14.185 100.786 14.1465 100.856C14.0656 100.992 14.0027 101.149 13.9344 101.312C13.8607 101.472 13.8168 101.655 13.7559 101.837C13.7003 102.021 13.6637 102.219 13.6164 102.419C13.5769 102.621 13.5511 102.833 13.5179 103.047C13.4906 103.263 13.4789 103.486 13.4594 103.711C13.4374 104.163 13.4238 104.632 13.4472 105.107C13.4545 105.33 13.4623 105.555 13.4701 105.78L13.4755 105.951C13.476 106.003 13.473 106.04 13.4721 106.086C13.4672 106.175 13.4735 106.261 13.4613 106.354C13.4169 107.107 13.177 107.73 12.7927 108.134C12.4118 108.543 11.9188 108.745 11.475 108.839C11.196 108.897 10.9351 108.92 10.7103 108.917C10.3875 108.912 10.2919 109.218 10.3148 109.495V109.497C10.3392 109.794 10.4679 109.966 10.8371 109.986C11.0961 110 11.4004 110.013 11.7379 109.974C12.267 109.908 12.8946 109.735 13.4545 109.23C13.732 108.978 13.9846 108.639 14.1724 108.224C14.3616 107.81 14.4835 107.326 14.5425 106.827C14.563 106.707 14.5664 106.565 14.5776 106.433L14.5898 106.236L14.5928 106.068C14.5962 105.843 14.5991 105.619 14.6025 105.396C14.601 104.977 14.6347 104.583 14.6703 104.209C14.6966 104.028 14.7147 103.844 14.7454 103.675C14.7815 103.511 14.8093 103.345 14.8478 103.194C14.8927 103.051 14.9268 102.9 14.9746 102.774C15.0268 102.653 15.0634 102.518 15.1204 102.42C15.1736 102.317 15.2199 102.213 15.2775 102.136C15.3043 102.094 15.3301 102.054 15.3555 102.015C15.3833 101.981 15.4101 101.949 15.4364 101.917C15.5213 101.812 15.6023 101.746 15.6744 101.693H17.95C18.3543 101.693 18.6815 101.37 18.6815 100.972V100.568C18.8493 100.61 19.0414 100.666 19.2628 100.773C19.3301 100.804 19.3989 100.836 19.4706 100.87C19.5403 100.911 19.6115 100.954 19.6851 100.999C19.8363 101.078 19.9826 101.197 20.1406 101.312C20.303 101.418 20.4469 101.58 20.6132 101.718C20.7746 101.865 20.9219 102.049 21.0872 102.219C21.2438 102.401 21.3891 102.608 21.5491 102.808C21.7012 103.017 21.8373 103.25 21.9885 103.477C22.2645 103.951 22.5474 104.452 22.7785 105C22.9082 105.289 23.0394 105.58 23.1706 105.873L23.2696 106.091L23.4028 106.344C23.4974 106.511 23.5827 106.696 23.6885 106.845C24.0777 107.473 24.5776 108.059 25.1657 108.528C25.7524 109 26.4186 109.349 27.0833 109.573C28.4234 110.023 29.7065 110.014 30.7424 109.902C31.4017 109.827 31.9747 109.706 32.4517 109.581C32.8555 109.474 33.0881 109.053 32.9686 108.655Z" stroke="#CADD75" stroke-width="4" shape-rendering="crispEdges" mask="url(#path-1-inside-1_4_156)"/>
</g>
<g filter="url(#filter1_d_4_156)">
<path d="M110.76 3.08C112.093 3.08 113.48 3.26666 114.92 3.64C116.413 4.01333 117.96 4.57333 119.56 5.32C121.213 6.01333 122.76 7 124.2 8.28C125.64 9.56 126.92 11.0267 128.04 12.68C129.213 14.3333 130.147 16.36 130.84 18.76C131.533 21.1067 131.88 23.6933 131.88 26.52V55.08H125.24V26.52C125.24 22.1467 123.8 18.28 120.92 14.92C118.093 11.5067 114.76 9.8 110.92 9.8C107.08 9.8 103.8 11.2933 101.08 14.28C98.36 17.2667 96.84 20.8667 96.52 25.08V42.84H89.8V25.08C89.5867 22.3067 88.84 19.7733 87.56 17.48C86.28 15.1333 84.5467 13.2667 82.36 11.88C80.2267 10.4933 77.9067 9.8 75.4 9.8C71.56 9.8 68.2 11.5067 65.32 14.92C62.44 18.28 61 22.1467 61 26.52V55.08H54.44V26.52C54.44 23.6933 54.7867 21.1067 55.48 18.76C56.1733 16.36 57.08 14.3333 58.2 12.68C59.3733 11.0267 60.68 9.56 62.12 8.28C63.56 7 65.08 6.01333 66.68 5.32C68.28 4.57333 69.8267 4.01333 71.32 3.64C72.8133 3.26666 74.2267 3.08 75.56 3.08C77.48 3.08 79.4533 3.4 81.48 4.04C83.56 4.68 85.6667 5.8 87.8 7.4C89.9867 9 91.7733 10.9467 93.16 13.24C94.5467 10.9467 96.3067 9 98.44 7.4C100.627 5.8 102.733 4.68 104.76 4.04C106.84 3.4 108.84 3.08 110.76 3.08ZM194.641 55H187.201L185.921 52.12C184.375 49.08 181.868 46.6533 178.401 44.84C174.988 43.0267 171.041 42.12 166.561 42.12C161.975 42.12 158.028 43 154.721 44.76C151.468 46.52 149.068 48.8933 147.521 51.88L146.081 55H138.641L162.961 3.24H170.321L194.641 55ZM166.401 35.32C171.148 35.32 175.468 36.3067 179.361 38.28L166.641 11.08L154.161 37.8C157.681 36.1467 161.761 35.32 166.401 35.32ZM246.349 31.88C247.043 31.9333 247.949 32.4133 249.069 33.32C250.189 34.1733 251.309 35.32 252.429 36.76C253.603 38.1467 254.589 39.9067 255.389 42.04C256.243 44.12 256.669 46.2267 256.669 48.36V55H249.949V48.36C249.949 45.48 248.776 42.7067 246.429 40.04C244.083 37.32 242.109 35.72 240.509 35.24C236.989 36.4133 232.403 37.3733 226.749 38.12C221.096 38.8667 215.309 38.8133 209.389 37.96V55H202.509V3.4H209.389C216.163 3.4 222.109 3.56 227.229 3.88C232.349 4.2 236.616 4.70667 240.029 5.4C243.496 6.04 246.349 6.78666 248.589 7.64C250.829 8.49333 252.536 9.56 253.709 10.84C254.883 12.0667 255.683 13.32 256.109 14.6C256.536 15.88 256.749 17.3733 256.749 19.08C256.749 20.52 256.429 21.9067 255.789 23.24C255.203 24.5733 254.483 25.72 253.629 26.68C252.776 27.5867 251.789 28.44 250.669 29.24C249.603 30.04 248.723 30.6267 248.029 31C247.389 31.3733 246.829 31.6667 246.349 31.88ZM209.389 31.32C215.309 31.96 220.749 32.0133 225.709 31.48C230.723 30.8933 235.016 29.96 238.589 28.68C242.216 27.3467 245.016 25.8267 246.989 24.12C248.963 22.4133 249.949 20.7333 249.949 19.08C249.949 18.28 249.816 17.5333 249.549 16.84C249.283 16.1467 248.803 15.5333 248.109 15C247.469 14.4667 246.749 13.9867 245.949 13.56C245.149 13.1333 244.109 12.76 242.829 12.44C241.549 12.12 240.269 11.8533 238.989 11.64C237.763 11.3733 236.216 11.16 234.349 11C232.536 10.84 230.803 10.7067 229.149 10.6C227.496 10.4933 225.496 10.4133 223.149 10.36C220.803 10.3067 218.616 10.28 216.589 10.28C214.563 10.28 212.163 10.28 209.389 10.28V31.32ZM274.698 55H267.978V3.48H274.698V55ZM338.548 55H331.108L329.828 52.12C328.281 49.08 325.774 46.6533 322.307 44.84C318.894 43.0267 314.948 42.12 310.468 42.12C305.881 42.12 301.934 43 298.628 44.76C295.374 46.52 292.974 48.8933 291.428 51.88L289.988 55H282.548L306.868 3.24H314.228L338.548 55ZM310.308 35.32C315.054 35.32 319.374 36.3067 323.268 38.28L310.548 11.08L298.068 37.8C301.588 36.1467 305.668 35.32 310.308 35.32ZM429.119 3.08C430.453 3.08 431.839 3.26666 433.279 3.64C434.773 4.01333 436.319 4.57333 437.919 5.32C439.573 6.01333 441.119 7 442.559 8.28C443.999 9.56 445.279 11.0267 446.399 12.68C447.573 14.3333 448.506 16.36 449.199 18.76C449.893 21.1067 450.239 23.6933 450.239 26.52V55.08H443.599V26.52C443.599 22.1467 442.159 18.28 439.279 14.92C436.453 11.5067 433.119 9.8 429.279 9.8C425.439 9.8 422.159 11.2933 419.439 14.28C416.719 17.2667 415.199 20.8667 414.879 25.08V42.84H408.159V25.08C407.946 22.3067 407.199 19.7733 405.919 17.48C404.639 15.1333 402.906 13.2667 400.719 11.88C398.586 10.4933 396.266 9.8 393.759 9.8C389.919 9.8 386.559 11.5067 383.679 14.92C380.799 18.28 379.359 22.1467 379.359 26.52V55.08H372.799V26.52C372.799 23.6933 373.146 21.1067 373.839 18.76C374.533 16.36 375.439 14.3333 376.559 12.68C377.733 11.0267 379.039 9.56 380.479 8.28C381.919 7 383.439 6.01333 385.039 5.32C386.639 4.57333 388.186 4.01333 389.679 3.64C391.173 3.26666 392.586 3.08 393.919 3.08C395.839 3.08 397.813 3.4 399.839 4.04C401.919 4.68 404.026 5.8 406.159 7.4C408.346 9 410.133 10.9467 411.519 13.24C412.906 10.9467 414.666 9 416.799 7.4C418.986 5.8 421.093 4.68 423.119 4.04C425.199 3.4 427.199 3.08 429.119 3.08ZM475.721 6.68C481.001 4.38667 486.921 3.24 493.481 3.24C500.041 3.24 505.934 4.38667 511.161 6.68C516.387 8.97333 520.441 12.0933 523.321 16.04C526.254 19.9867 527.721 24.3867 527.721 29.24C527.721 33.9867 526.174 38.36 523.081 42.36C520.041 46.3067 515.881 49.4267 510.601 51.72C505.374 54.0133 499.667 55.16 493.481 55.16C487.027 55.16 481.161 54.0133 475.881 51.72C470.601 49.4267 466.494 46.3067 463.561 42.36C460.627 38.36 459.161 33.96 459.161 29.16C459.161 24.36 460.601 19.9867 463.481 16.04C466.414 12.0933 470.494 8.97333 475.721 6.68ZM493.481 48.44C498.494 48.44 503.081 47.64 507.241 46.04C511.454 44.44 514.814 42.1733 517.321 39.24C519.827 36.2533 521.081 32.92 521.081 29.24C521.081 23.64 518.521 19.0267 513.401 15.4C508.334 11.7733 501.694 9.96 493.481 9.96C485.587 9.96 479.027 11.7733 473.801 15.4C468.574 18.9733 465.961 23.5867 465.961 29.24C465.961 32.8667 467.187 36.1467 469.641 39.08C472.094 42.0133 475.401 44.3067 479.561 45.96C483.774 47.6133 488.414 48.44 493.481 48.44ZM581.506 31.88C582.199 31.9333 583.106 32.4133 584.226 33.32C585.346 34.1733 586.466 35.32 587.586 36.76C588.759 38.1467 589.746 39.9067 590.546 42.04C591.399 44.12 591.826 46.2267 591.826 48.36V55H585.106V48.36C585.106 45.48 583.932 42.7067 581.586 40.04C579.239 37.32 577.266 35.72 575.666 35.24C572.146 36.4133 567.559 37.3733 561.906 38.12C556.252 38.8667 550.466 38.8133 544.546 37.96V55H537.666V3.4H544.546C551.319 3.4 557.266 3.56 562.386 3.88C567.506 4.2 571.772 4.70667 575.186 5.4C578.652 6.04 581.506 6.78666 583.746 7.64C585.986 8.49333 587.692 9.56 588.866 10.84C590.039 12.0667 590.839 13.32 591.266 14.6C591.692 15.88 591.906 17.3733 591.906 19.08C591.906 20.52 591.586 21.9067 590.946 23.24C590.359 24.5733 589.639 25.72 588.786 26.68C587.932 27.5867 586.946 28.44 585.826 29.24C584.759 30.04 583.879 30.6267 583.186 31C582.546 31.3733 581.986 31.6667 581.506 31.88ZM544.546 31.32C550.466 31.96 555.906 32.0133 560.866 31.48C565.879 30.8933 570.172 29.96 573.746 28.68C577.372 27.3467 580.172 25.8267 582.146 24.12C584.119 22.4133 585.106 20.7333 585.106 19.08C585.106 18.28 584.972 17.5333 584.706 16.84C584.439 16.1467 583.959 15.5333 583.266 15C582.626 14.4667 581.906 13.9867 581.106 13.56C580.306 13.1333 579.266 12.76 577.986 12.44C576.706 12.12 575.426 11.8533 574.146 11.64C572.919 11.3733 571.372 11.16 569.506 11C567.692 10.84 565.959 10.7067 564.306 10.6C562.652 10.4933 560.652 10.4133 558.306 10.36C555.959 10.3067 553.772 10.28 551.746 10.28C549.719 10.28 547.319 10.28 544.546 10.28V31.32ZM649.774 32.6H609.854V48.28H649.774V55.08H603.134V3.56H649.774V10.2H609.854V25.8H649.774V32.6ZM716.627 3.56C716.627 5.48 716.627 10.2533 716.627 17.88C716.627 25.4533 716.627 33.5333 716.627 42.12C716.627 50.7067 716.627 55 716.627 55H711.987C708.467 55 705.107 54.7067 701.907 54.12C698.76 53.48 695.96 52.68 693.507 51.72C691.107 50.7067 688.814 49.4533 686.627 47.96C684.494 46.4667 682.654 45 681.107 43.56C679.614 42.0667 678.174 40.3867 676.787 38.52C675.454 36.6 674.36 34.8933 673.507 33.4C672.707 31.8533 671.907 30.1733 671.107 28.36C670.36 26.5467 669.827 25.1067 669.507 24.04C669.187 22.92 668.814 21.72 668.387 20.44C668.014 19.16 667.8 18.4133 667.747 18.2V55H660.867V3.56H666.147C667.107 3.56 667.987 3.98667 668.787 4.84C669.64 5.69333 670.387 6.84 671.027 8.28C671.667 9.66666 672.36 11.32 673.107 13.24C673.854 15.16 674.574 17.1867 675.267 19.32C676.014 21.4533 676.92 23.6667 677.987 25.96C679.107 28.2 680.28 30.3867 681.507 32.52C682.787 34.6533 684.334 36.68 686.147 38.6C688.014 40.52 690.04 42.2 692.227 43.64C694.414 45.0267 697.027 46.1467 700.067 47C703.107 47.8533 706.414 48.28 709.987 48.28C710.094 44.8667 710.094 29.96 709.987 3.56H716.627ZM780.423 55H772.983L771.703 52.12C770.156 49.08 767.649 46.6533 764.182 44.84C760.769 43.0267 756.823 42.12 752.343 42.12C747.756 42.12 743.809 43 740.503 44.76C737.249 46.52 734.849 48.8933 733.303 51.88L731.863 55H724.423L748.743 3.24H756.103L780.423 55ZM752.183 35.32C756.929 35.32 761.249 36.3067 765.143 38.28L752.423 11.08L739.943 37.8C743.463 36.1467 747.543 35.32 752.183 35.32Z" fill="white"/>
</g>
<path d="M59.12 102L65.87 82.29H68.33L75.05 102H72.71L69.14 90.84C68.78 89.72 68.43 88.62 68.09 87.54C67.77 86.44 67.44 85.31 67.1 84.15H66.98C66.68 85.31 66.36 86.44 66.02 87.54C65.7 88.62 65.35 89.72 64.97 90.84L61.37 102H59.12ZM62.54 95.79V94.02H71.57V95.79H62.54ZM124.738 102V82.29H127.468L131.338 93.09C131.598 93.77 131.838 94.46 132.058 95.16C132.298 95.86 132.538 96.56 132.778 97.26H132.898C133.158 96.56 133.398 95.86 133.618 95.16C133.838 94.46 134.068 93.77 134.308 93.09L138.118 82.29H140.878V102H138.808V90.6C138.808 90.04 138.818 89.43 138.838 88.77C138.878 88.11 138.918 87.45 138.958 86.79C138.998 86.11 139.038 85.48 139.078 84.9H138.958L137.398 89.37L133.558 99.96H131.998L128.128 89.37L126.568 84.9H126.448C126.488 85.48 126.528 86.11 126.568 86.79C126.628 87.45 126.668 88.11 126.688 88.77C126.728 89.43 126.748 90.04 126.748 90.6V102H124.738ZM173.929 102.36C172.289 102.36 170.839 101.94 169.579 101.1C168.319 100.26 167.329 99.07 166.609 97.53C165.909 95.99 165.559 94.17 165.559 92.07C165.559 89.97 165.909 88.17 166.609 86.67C167.329 85.15 168.319 83.98 169.579 83.16C170.839 82.34 172.289 81.93 173.929 81.93C175.549 81.93 176.989 82.34 178.249 83.16C179.509 83.98 180.489 85.15 181.189 86.67C181.909 88.17 182.269 89.97 182.269 92.07C182.269 94.17 181.909 95.99 181.189 97.53C180.489 99.07 179.509 100.26 178.249 101.1C176.989 101.94 175.549 102.36 173.929 102.36ZM173.929 100.41C175.129 100.41 176.179 100.07 177.079 99.39C177.999 98.69 178.709 97.72 179.209 96.48C179.709 95.22 179.959 93.75 179.959 92.07C179.959 90.39 179.709 88.94 179.209 87.72C178.709 86.5 177.999 85.56 177.079 84.9C176.179 84.22 175.129 83.88 173.929 83.88C172.709 83.88 171.639 84.22 170.719 84.9C169.819 85.56 169.119 86.5 168.619 87.72C168.119 88.94 167.869 90.39 167.869 92.07C167.869 93.75 168.119 95.22 168.619 96.48C169.119 97.72 169.819 98.69 170.719 99.39C171.639 100.07 172.709 100.41 173.929 100.41ZM206.993 102V82.29H211.823C213.843 82.29 215.533 82.68 216.893 83.46C218.273 84.22 219.303 85.33 219.983 86.79C220.683 88.25 221.033 90.01 221.033 92.07C221.033 94.13 220.683 95.91 219.983 97.41C219.303 98.89 218.283 100.03 216.923 100.83C215.563 101.61 213.893 102 211.913 102H206.993ZM209.213 100.17H211.643C213.243 100.17 214.563 99.84 215.603 99.18C216.663 98.52 217.453 97.59 217.973 96.39C218.493 95.19 218.753 93.75 218.753 92.07C218.753 90.41 218.493 88.99 217.973 87.81C217.453 86.61 216.663 85.7 215.603 85.08C214.563 84.44 213.243 84.12 211.643 84.12H209.213V100.17ZM243.151 102L249.901 82.29H252.361L259.081 102H256.741L253.171 90.84C252.811 89.72 252.461 88.62 252.121 87.54C251.801 86.44 251.471 85.31 251.131 84.15H251.011C250.711 85.31 250.391 86.44 250.051 87.54C249.731 88.62 249.381 89.72 249.001 90.84L245.401 102H243.151ZM246.571 95.79V94.02H255.601V95.79H246.571ZM306.129 102L312.879 82.29H315.339L322.059 102H319.719L316.149 90.84C315.789 89.72 315.439 88.62 315.099 87.54C314.779 86.44 314.449 85.31 314.109 84.15H313.989C313.689 85.31 313.369 86.44 313.029 87.54C312.709 88.62 312.359 89.72 311.979 90.84L308.379 102H306.129ZM309.549 95.79V94.02H318.579V95.79H309.549ZM352.511 102.36C350.871 102.36 349.421 101.94 348.161 101.1C346.901 100.26 345.911 99.07 345.191 97.53C344.491 95.99 344.141 94.17 344.141 92.07C344.141 89.97 344.491 88.17 345.191 86.67C345.911 85.15 346.901 83.98 348.161 83.16C349.421 82.34 350.871 81.93 352.511 81.93C354.131 81.93 355.571 82.34 356.831 83.16C358.091 83.98 359.071 85.15 359.771 86.67C360.491 88.17 360.851 89.97 360.851 92.07C360.851 94.17 360.491 95.99 359.771 97.53C359.071 99.07 358.091 100.26 356.831 101.1C355.571 101.94 354.131 102.36 352.511 102.36ZM352.511 100.41C353.711 100.41 354.761 100.07 355.661 99.39C356.581 98.69 357.291 97.72 357.791 96.48C358.291 95.22 358.541 93.75 358.541 92.07C358.541 90.39 358.291 88.94 357.791 87.72C357.291 86.5 356.581 85.56 355.661 84.9C354.761 84.22 353.711 83.88 352.511 83.88C351.291 83.88 350.221 84.22 349.301 84.9C348.401 85.56 347.701 86.5 347.201 87.72C346.701 88.94 346.451 90.39 346.451 92.07C346.451 93.75 346.701 95.22 347.201 96.48C347.701 97.72 348.401 98.69 349.301 99.39C350.221 100.07 351.291 100.41 352.511 100.41ZM417.351 102.36C415.971 102.36 414.701 102.09 413.541 101.55C412.381 101.01 411.371 100.3 410.511 99.42L411.861 97.89C412.581 98.65 413.411 99.26 414.351 99.72C415.311 100.18 416.321 100.41 417.381 100.41C418.741 100.41 419.801 100.1 420.561 99.48C421.321 98.84 421.701 98.01 421.701 96.99C421.701 96.29 421.551 95.73 421.251 95.31C420.951 94.87 420.551 94.51 420.051 94.23C419.551 93.93 418.981 93.64 418.341 93.36L415.491 92.1C414.891 91.84 414.281 91.5 413.661 91.08C413.041 90.66 412.521 90.13 412.101 89.49C411.701 88.85 411.501 88.04 411.501 87.06C411.501 86.08 411.761 85.21 412.281 84.45C412.801 83.67 413.521 83.06 414.441 82.62C415.361 82.16 416.401 81.93 417.561 81.93C418.741 81.93 419.821 82.16 420.801 82.62C421.801 83.08 422.631 83.66 423.291 84.36L422.091 85.8C421.511 85.2 420.841 84.73 420.081 84.39C419.341 84.05 418.501 83.88 417.561 83.88C416.421 83.88 415.491 84.16 414.771 84.72C414.071 85.26 413.721 86 413.721 86.94C413.721 87.6 413.891 88.14 414.231 88.56C414.571 88.98 414.991 89.33 415.491 89.61C416.011 89.87 416.521 90.11 417.021 90.33L419.871 91.59C420.651 91.91 421.341 92.29 421.941 92.73C422.541 93.17 423.021 93.72 423.381 94.38C423.761 95.04 423.951 95.86 423.951 96.84C423.951 97.86 423.681 98.79 423.141 99.63C422.621 100.47 421.861 101.14 420.861 101.64C419.881 102.12 418.711 102.36 417.351 102.36ZM448.289 102V82.29H459.479V84.18H450.509V90.69H458.069V92.55H450.509V100.11H459.779V102H448.289ZM491.291 102.36C490.331 102.36 489.421 102.22 488.561 101.94C487.721 101.64 486.981 101.17 486.341 100.53C485.721 99.89 485.231 99.04 484.871 97.98C484.511 96.9 484.331 95.58 484.331 94.02V82.29H486.551V94.02C486.551 95.64 486.761 96.92 487.181 97.86C487.621 98.78 488.191 99.44 488.891 99.84C489.611 100.22 490.411 100.41 491.291 100.41C492.191 100.41 493.001 100.22 493.721 99.84C494.461 99.44 495.051 98.78 495.491 97.86C495.931 96.92 496.151 95.64 496.151 94.02V82.29H498.281V94.02C498.281 95.58 498.091 96.9 497.711 97.98C497.351 99.04 496.851 99.89 496.211 100.53C495.591 101.17 494.861 101.64 494.021 101.94C493.181 102.22 492.271 102.36 491.291 102.36ZM547.865 102L554.615 82.29H557.075L563.795 102H561.455L557.885 90.84C557.525 89.72 557.175 88.62 556.835 87.54C556.515 86.44 556.185 85.31 555.845 84.15H555.725C555.425 85.31 555.105 86.44 554.765 87.54C554.445 88.62 554.095 89.72 553.715 90.84L550.115 102H547.865ZM551.285 95.79V94.02H560.315V95.79H551.285ZM587.076 102V82.29H589.296V100.11H597.996V102H587.076ZM629.24 102.36C627.6 102.36 626.14 101.96 624.86 101.16C623.58 100.34 622.57 99.17 621.83 97.65C621.09 96.11 620.72 94.28 620.72 92.16C620.72 90.56 620.93 89.14 621.35 87.9C621.79 86.64 622.4 85.56 623.18 84.66C623.98 83.76 624.9 83.08 625.94 82.62C627 82.16 628.15 81.93 629.39 81.93C630.59 81.93 631.64 82.18 632.54 82.68C633.46 83.16 634.19 83.71 634.73 84.33L633.5 85.8C632.98 85.22 632.38 84.76 631.7 84.42C631.04 84.06 630.28 83.88 629.42 83.88C628.14 83.88 627.02 84.22 626.06 84.9C625.1 85.56 624.35 86.51 623.81 87.75C623.29 88.97 623.03 90.42 623.03 92.1C623.03 93.8 623.28 95.27 623.78 96.51C624.3 97.75 625.03 98.71 625.97 99.39C626.93 100.07 628.05 100.41 629.33 100.41C630.31 100.41 631.17 100.21 631.91 99.81C632.67 99.41 633.37 98.85 634.01 98.13L635.24 99.51C634.48 100.41 633.61 101.11 632.63 101.61C631.65 102.11 630.52 102.36 629.24 102.36ZM656.76 102L663.51 82.29H665.97L672.69 102H670.35L666.78 90.84C666.42 89.72 666.07 88.62 665.73 87.54C665.41 86.44 665.08 85.31 664.74 84.15H664.62C664.32 85.31 664 86.44 663.66 87.54C663.34 88.62 662.99 89.72 662.61 90.84L659.01 102H656.76ZM660.18 95.79V94.02H669.21V95.79H660.18ZM695.972 102V82.29H698.252L705.692 95.07L707.852 99.12H707.972C707.912 98.12 707.842 97.1 707.762 96.06C707.702 95 707.672 93.97 707.672 92.97V82.29H709.772V102H707.492L700.052 89.22L697.892 85.17H697.772C697.852 86.15 697.922 87.15 697.982 88.17C698.042 89.17 698.072 90.18 698.072 91.2V102H695.972ZM742.998 102.36C741.358 102.36 739.898 101.96 738.618 101.16C737.338 100.34 736.328 99.17 735.588 97.65C734.848 96.11 734.478 94.28 734.478 92.16C734.478 90.56 734.688 89.14 735.108 87.9C735.548 86.64 736.158 85.56 736.938 84.66C737.738 83.76 738.658 83.08 739.698 82.62C740.758 82.16 741.908 81.93 743.148 81.93C744.348 81.93 745.398 82.18 746.298 82.68C747.218 83.16 747.948 83.71 748.488 84.33L747.258 85.8C746.738 85.22 746.138 84.76 745.458 84.42C744.798 84.06 744.038 83.88 743.178 83.88C741.898 83.88 740.778 84.22 739.818 84.9C738.858 85.56 738.108 86.51 737.568 87.75C737.048 88.97 736.788 90.42 736.788 92.1C736.788 93.8 737.038 95.27 737.538 96.51C738.058 97.75 738.788 98.71 739.728 99.39C740.688 100.07 741.808 100.41 743.088 100.41C744.068 100.41 744.928 100.21 745.668 99.81C746.428 99.41 747.128 98.85 747.768 98.13L748.998 99.51C748.238 100.41 747.368 101.11 746.388 101.61C745.408 102.11 744.278 102.36 742.998 102.36ZM773.158 102V82.29H784.348V84.18H775.378V90.69H782.938V92.55H775.378V100.11H784.648V102H773.158Z" fill="#CADD75"/>
<defs>
<filter id="filter0_d_4_156" x="0" y="0" width="45" height="123" filterUnits="userSpaceOnUse" color-interpolation-filters="sRGB">
<feFlood flood-opacity="0" result="BackgroundImageFix"/>
<feColorMatrix in="SourceAlpha" type="matrix" values="0 0 0 0 0 0 0 0 0 0 0 0 0 0 0 0 0 0 127 0" result="hardAlpha"/>
<feOffset dx="8" dy="9"/>
<feGaussianBlur stdDeviation="2"/>
<feComposite in2="hardAlpha" operator="out"/>
<feColorMatrix type="matrix" values="0 0 0 0 0.301961 0 0 0 0 0.301961 0 0 0 0 0.301961 0 0 0 1 0"/>
<feBlend mode="normal" in2="BackgroundImageFix" result="effect1_dropShadow_4_156"/>
<feBlend mode="normal" in="SourceGraphic" in2="effect1_dropShadow_4_156" result="shape"/>
</filter>
<filter id="filter1_d_4_156" x="54.4399" y="3.08008" width="738.983" height="65.0798" filterUnits="userSpaceOnUse" color-interpolation-filters="sRGB">
<feFlood flood-opacity="0" result="BackgroundImageFix"/>
<feColorMatrix in="SourceAlpha" type="matrix" values="0 0 0 0 0 0 0 0 0 0 0 0 0 0 0 0 0 0 127 0" result="hardAlpha"/>
<feOffset dx="9" dy="9"/>
<feGaussianBlur stdDeviation="2"/>
<feComposite in2="hardAlpha" operator="out"/>
<feColorMatrix type="matrix" values="0 0 0 0 0.282353 0 0 0 0 0.305882 0 0 0 0 0.235294 0 0 0 1 0"/>
<feBlend mode="normal" in2="BackgroundImageFix" result="effect1_dropShadow_4_156"/>
<feBlend mode="normal" in="SourceGraphic" in2="effect1_dropShadow_4_156" result="shape"/>
</filter>
</defs>
</svg>